<?xml version="1.0" encoding="UTF-8" standalone="no"?>
<!-- Generator: Adobe Illustrator 16.0.0, SVG Export Plug-In . SVG Version: 6.00 Build 0)  -->

<svg
   version="1.1"
   id="Layer_1"
   x="0px"
   y="0px"
   width="220px"
   height="21.01px"
   viewBox="0 0 220 21.01"
   enable-background="new 0 0 220 21.01"
   xml:space="preserve"
   sodipodi:docname="unrn_logo.svg"
   inkscape:version="1.4.2 (ebf0e940d0, 2025-05-08)"
   xmlns:inkscape="http://www.inkscape.org/namespaces/inkscape"
   xmlns:sodipodi="http://sodipodi.sourceforge.net/DTD/sodipodi-0.dtd"
   xmlns="http://www.w3.org/2000/svg"
   xmlns:svg="http://www.w3.org/2000/svg"><defs
   id="defs34" /><sodipodi:namedview
   id="namedview34"
   pagecolor="#ffffff"
   bordercolor="#000000"
   borderopacity="0.25"
   inkscape:showpageshadow="2"
   inkscape:pageopacity="0.0"
   inkscape:pagecheckerboard="0"
   inkscape:deskcolor="#d1d1d1"
   inkscape:zoom="2.2727273"
   inkscape:cx="137.28"
   inkscape:cy="49.72"
   inkscape:window-width="1600"
   inkscape:window-height="831"
   inkscape:window-x="0"
   inkscape:window-y="0"
   inkscape:window-maximized="1"
   inkscape:current-layer="Layer_1" />

<g
   id="g34"
   transform="translate(4.23)">
	<g
   id="g4">
		<path
   fill="#eb2242"
   d="m 17.221,12.117 c 0,3.007 -0.683,4.784 -2.05,6.151 -1.367,1.366 -3.554,2.214 -6.561,2.214 -3.007,0 -5.193,-0.848 -6.561,-2.214 C 0.683,16.901 0,15.125 0,12.117 V 1.32 h 6.205 v 11.07 c 0,1.121 0.219,1.64 0.629,2.051 0.409,0.41 0.956,0.683 1.776,0.683 0.82,0 1.367,-0.273 1.776,-0.683 0.41,-0.411 0.603,-0.957 0.603,-2.051 V 1.32 h 6.231 v 10.797 z"
   id="path1" />
		<path
   fill="#eb2242"
   d="M 40.095,20.181 H 33.671 L 27.931,9.657 c 0,0 0.137,2.051 0.137,3.417 v 7.107 H 22.054 V 1.32 h 6.697 l 5.467,10.523 c 0,0 -0.137,-2.05 -0.137,-3.417 V 1.32 h 6.014 z"
   id="path2" />
		<path
   fill="#eb2242"
   d="m 62.147,20.181 h -7.106 l -3.008,-6.287 h -0.792 v 6.287 H 45.063 V 1.32 h 8.2 c 2.323,0 4.101,0.41 5.467,1.366 1.367,0.957 2.324,2.597 2.324,4.647 0,3.827 -2.324,5.194 -3.144,5.686 z M 54.139,6.322 C 53.866,6.104 53.455,5.967 52.772,5.967 h -1.558 v 3.281 h 1.558 c 0.684,0 1.121,-0.136 1.367,-0.328 C 54.44,8.701 54.823,8.427 54.823,7.608 54.822,6.787 54.412,6.513 54.139,6.322 Z"
   id="path3" />
		<path
   fill="#eb2242"
   d="M 83.382,20.181 H 76.958 L 71.217,9.657 c 0,0 0.137,2.051 0.137,3.417 v 7.107 H 65.341 V 1.32 h 6.697 l 5.467,10.523 c 0,0 -0.137,-2.05 -0.137,-3.417 V 1.32 h 6.014 v 18.861 z"
   id="path4" />
	</g>
	<g
   id="g33">
		<path
   fill="#1b2437"
   d="M 115.086,5.848 V 1.873 h 0.772 v 3.926 c 0,1.475 0.781,2.306 2.09,2.306 1.26,0 2.061,-0.762 2.061,-2.256 V 1.873 h 0.771 v 3.916 c 0,1.993 -1.143,3.028 -2.852,3.028 -1.689,0 -2.842,-1.035 -2.842,-2.969 z"
   id="path5" />
		<path
   fill="#1b2437"
   d="m 122.475,3.661 h 0.752 v 0.878 c 0.332,-0.547 0.859,-0.986 1.729,-0.986 1.221,0 1.934,0.82 1.934,2.022 V 8.71 h -0.752 V 5.761 c 0,-0.938 -0.508,-1.525 -1.396,-1.525 -0.869,0 -1.514,0.636 -1.514,1.583 V 8.71 h -0.752 V 3.661 Z"
   id="path6" />
		<path
   fill="#1b2437"
   d="m 128.506,1.726 h 0.859 v 0.831 h -0.859 z m 0.049,1.935 h 0.752 V 8.71 h -0.752 z"
   id="path7" />
		<path
   fill="#1b2437"
   d="m 130.555,3.661 h 0.831 l 1.699,4.189 1.71,-4.189 h 0.81 l -2.197,5.088 h -0.664 z"
   id="path8" />
		<path
   fill="#1b2437"
   d="m 139.01,8.172 c 0.693,0 1.182,-0.283 1.592,-0.713 l 0.469,0.42 c -0.508,0.566 -1.123,0.947 -2.08,0.947 -1.387,0 -2.521,-1.064 -2.521,-2.637 0,-1.465 1.026,-2.637 2.423,-2.637 1.494,0 2.354,1.192 2.354,2.677 0,0.067 0,0.146 -0.01,0.263 h -4.005 c 0.108,1.066 0.889,1.68 1.778,1.68 z m 1.474,-2.285 c -0.088,-0.918 -0.615,-1.7 -1.611,-1.7 -0.869,0 -1.533,0.723 -1.642,1.7 z"
   id="path9" />
		<path
   fill="#1b2437"
   d="m 142.561,3.661 h 0.752 v 1.318 c 0.371,-0.84 1.104,-1.446 2.061,-1.406 v 0.81 h -0.059 c -1.104,0 -2.002,0.791 -2.002,2.315 v 2.011 h -0.752 z"
   id="path10" />
		<path
   fill="#1b2437"
   d="m 146.094,8.064 0.381,-0.536 c 0.547,0.41 1.152,0.644 1.748,0.644 0.605,0 1.045,-0.312 1.045,-0.8 v -0.02 c 0,-0.508 -0.596,-0.704 -1.26,-0.888 -0.791,-0.225 -1.67,-0.499 -1.67,-1.427 v -0.02 c 0,-0.869 0.723,-1.444 1.719,-1.444 0.615,0 1.299,0.214 1.816,0.557 l -0.342,0.566 c -0.469,-0.303 -1.006,-0.488 -1.494,-0.488 -0.597,0 -0.977,0.312 -0.977,0.731 v 0.02 c 0,0.479 0.625,0.665 1.299,0.869 0.781,0.234 1.621,0.538 1.621,1.446 v 0.02 c 0,0.957 -0.791,1.514 -1.797,1.514 -0.722,0 -1.524,-0.284 -2.089,-0.744 z"
   id="path11" />
		<path
   fill="#1b2437"
   d="m 151.393,1.726 h 0.859 v 0.831 h -0.859 z m 0.049,1.935 h 0.751 V 8.71 h -0.751 z"
   id="path12" />
		<path
   fill="#1b2437"
   d="M 153.647,6.2 V 6.18 c 0,-1.65 1.201,-2.627 2.412,-2.627 0.938,0 1.544,0.508 1.935,1.074 V 1.58 h 0.752 v 7.13 h -0.752 V 7.694 c -0.411,0.605 -1.007,1.124 -1.935,1.124 -1.21,-10e-4 -2.412,-0.958 -2.412,-2.618 z m 4.376,-0.011 V 6.17 c 0,-1.163 -0.889,-1.944 -1.826,-1.944 -0.978,0 -1.778,0.723 -1.778,1.944 v 0.019 c 0,1.192 0.82,1.953 1.778,1.953 0.938,0.001 1.826,-0.79 1.826,-1.953 z"
   id="path13" />
		<path
   fill="#1b2437"
   d="m 160.04,7.245 v -0.02 c 0,-1.084 0.879,-1.65 2.158,-1.65 0.645,0 1.094,0.088 1.543,0.214 V 5.633 c 0,-0.898 -0.547,-1.367 -1.494,-1.367 -0.596,0 -1.064,0.146 -1.533,0.361 l -0.225,-0.614 c 0.557,-0.254 1.094,-0.43 1.836,-0.43 0.713,0 1.27,0.195 1.631,0.556 0.353,0.352 0.528,0.84 0.528,1.485 V 8.71 h -0.743 V 7.958 c -0.352,0.449 -0.928,0.859 -1.816,0.859 -0.947,0 -1.885,-0.537 -1.885,-1.572 z m 3.711,-0.391 V 6.386 c -0.37,-0.108 -0.859,-0.215 -1.475,-0.215 -0.938,0 -1.475,0.41 -1.475,1.016 v 0.019 c 0,0.636 0.586,1.006 1.27,1.006 0.928,-10e-4 1.68,-0.557 1.68,-1.358 z"
   id="path14" />
		<path
   fill="#1b2437"
   d="M 165.779,6.2 V 6.18 c 0,-1.65 1.201,-2.627 2.412,-2.627 0.938,0 1.543,0.508 1.934,1.074 V 1.58 h 0.752 v 7.13 h -0.752 V 7.694 c -0.41,0.605 -1.006,1.124 -1.934,1.124 C 166.98,8.817 165.779,7.86 165.779,6.2 Z m 4.375,-0.011 V 6.17 c 0,-1.163 -0.889,-1.944 -1.826,-1.944 -0.977,0 -1.777,0.723 -1.777,1.944 v 0.019 c 0,1.192 0.82,1.953 1.777,1.953 0.938,0.001 1.826,-0.79 1.826,-1.953 z"
   id="path15" />
		<path
   fill="#1b2437"
   d="m 175.606,1.873 h 0.724 l 4.307,5.479 V 1.873 h 0.752 v 6.836 h -0.615 L 176.36,3.104 v 5.605 h -0.753 V 1.873 Z"
   id="path16" />
		<path
   fill="#1b2437"
   d="m 182.81,7.245 v -0.02 c 0,-1.084 0.88,-1.65 2.158,-1.65 0.646,0 1.095,0.088 1.544,0.214 V 5.633 c 0,-0.898 -0.547,-1.367 -1.494,-1.367 -0.597,0 -1.065,0.146 -1.534,0.361 l -0.225,-0.614 c 0.557,-0.254 1.095,-0.43 1.837,-0.43 0.713,0 1.269,0.195 1.631,0.556 0.352,0.352 0.527,0.84 0.527,1.485 V 8.71 h -0.742 V 7.958 c -0.352,0.449 -0.929,0.859 -1.817,0.859 -0.948,0 -1.885,-0.537 -1.885,-1.572 z m 3.711,-0.391 V 6.386 c -0.37,-0.108 -0.859,-0.215 -1.475,-0.215 -0.938,0 -1.475,0.41 -1.475,1.016 v 0.019 c 0,0.636 0.587,1.006 1.27,1.006 0.929,-10e-4 1.68,-0.557 1.68,-1.358 z"
   id="path17" />
		<path
   fill="#1b2437"
   d="m 188.529,6.209 v -0.02 c 0,-1.426 1.113,-2.637 2.588,-2.637 0.957,0 1.553,0.4 2.021,0.898 l -0.497,0.528 c -0.401,-0.42 -0.851,-0.762 -1.534,-0.762 -1.025,0 -1.807,0.869 -1.807,1.954 v 0.019 c 0,1.094 0.801,1.964 1.855,1.964 0.645,0 1.143,-0.323 1.543,-0.752 l 0.479,0.449 c -0.508,0.567 -1.113,0.977 -2.061,0.977 -1.473,0 -2.587,-1.202 -2.587,-2.618 z"
   id="path18" />
		<path
   fill="#1b2437"
   d="m 194.434,1.726 h 0.86 v 0.831 h -0.86 z m 0.049,1.935 h 0.752 V 8.71 h -0.752 z"
   id="path19" />
		<path
   fill="#1b2437"
   d="m 196.669,6.209 v -0.02 c 0,-1.426 1.113,-2.637 2.637,-2.637 1.514,0 2.628,1.192 2.628,2.618 v 0.019 c 0,1.426 -1.123,2.637 -2.647,2.637 -1.515,10e-4 -2.618,-1.19 -2.618,-2.617 z m 4.493,0 v -0.02 c 0,-1.083 -0.812,-1.973 -1.876,-1.973 -1.094,0 -1.846,0.889 -1.846,1.954 v 0.019 c 0,1.084 0.801,1.964 1.865,1.964 1.094,0 1.857,-0.879 1.857,-1.944 z"
   id="path20" />
		<path
   fill="#1b2437"
   d="m 203.286,3.661 h 0.752 v 0.878 c 0.332,-0.547 0.859,-0.986 1.729,-0.986 1.221,0 1.935,0.82 1.935,2.022 V 8.71 h -0.753 V 5.761 c 0,-0.938 -0.508,-1.525 -1.396,-1.525 -0.869,0 -1.514,0.636 -1.514,1.583 V 8.71 h -0.752 V 3.661 Z"
   id="path21" />
		<path
   fill="#1b2437"
   d="m 208.917,7.245 v -0.02 c 0,-1.084 0.88,-1.65 2.159,-1.65 0.645,0 1.094,0.088 1.543,0.214 V 5.633 c 0,-0.898 -0.547,-1.367 -1.494,-1.367 -0.596,0 -1.064,0.146 -1.534,0.361 l -0.224,-0.614 c 0.556,-0.254 1.094,-0.43 1.836,-0.43 0.713,0 1.27,0.195 1.631,0.556 0.352,0.352 0.527,0.84 0.527,1.485 V 8.71 h -0.742 V 7.958 c -0.352,0.449 -0.929,0.859 -1.816,0.859 -0.949,0 -1.886,-0.537 -1.886,-1.572 z m 3.712,-0.391 V 6.386 c -0.371,-0.108 -0.86,-0.215 -1.475,-0.215 -0.938,0 -1.475,0.41 -1.475,1.016 v 0.019 c 0,0.636 0.586,1.006 1.269,1.006 0.929,-10e-4 1.681,-0.557 1.681,-1.358 z"
   id="path22" />
		<path
   fill="#1b2437"
   d="m 215.018,1.58 h 0.752 v 7.13 h -0.752 z"
   id="path23" />
		<path
   fill="#1b2437"
   d="m 114.773,16.662 v -0.02 c 0,-1.65 1.202,-2.627 2.413,-2.627 0.938,0 1.543,0.508 1.934,1.074 v -3.047 h 0.752 v 7.13 h -0.752 v -1.016 c -0.41,0.605 -1.006,1.124 -1.934,1.124 -1.21,0 -2.413,-0.958 -2.413,-2.618 z m 4.376,-0.01 v -0.019 c 0,-1.163 -0.889,-1.944 -1.827,-1.944 -0.977,0 -1.776,0.723 -1.776,1.944 v 0.019 c 0,1.192 0.82,1.953 1.776,1.953 0.939,0 1.827,-0.791 1.827,-1.953 z"
   id="path24" />
		<path
   fill="#1b2437"
   d="m 123.774,18.635 c 0.692,0 1.182,-0.283 1.592,-0.713 l 0.469,0.42 c -0.508,0.566 -1.123,0.947 -2.08,0.947 -1.388,0 -2.521,-1.064 -2.521,-2.638 0,-1.464 1.026,-2.637 2.423,-2.637 1.494,0 2.354,1.192 2.354,2.677 0,0.067 0,0.146 -0.01,0.263 h -4.005 c 0.108,1.066 0.89,1.681 1.778,1.681 z m 1.475,-2.285 c -0.088,-0.918 -0.615,-1.7 -1.611,-1.7 -0.869,0 -1.533,0.723 -1.642,1.7 z"
   id="path25" />
		<path
   fill="#1b2437"
   d="m 130.233,12.335 h 3.126 c 0.869,0 1.543,0.244 1.992,0.693 0.381,0.381 0.586,0.918 0.586,1.563 v 0.019 c 0,1.104 -0.596,1.797 -1.465,2.119 l 1.67,2.442 h -1.758 l -1.466,-2.188 h -1.182 v 2.188 h -1.504 v -6.836 z m 3.029,3.321 c 0.732,0 1.152,-0.391 1.152,-0.967 V 14.67 c 0,-0.645 -0.449,-0.977 -1.183,-0.977 h -1.494 v 1.963 h 1.525 z"
   id="path26" />
		<path
   fill="#1b2437"
   d="m 137.202,13.937 h 1.484 v 5.235 h -1.484 z m 1.24,-2.305 1.279,0.556 -1.27,1.172 h -1.094 z"
   id="path27" />
		<path
   fill="#1b2437"
   d="m 139.827,16.584 v -0.02 c 0,-1.503 1.211,-2.725 2.842,-2.725 1.622,0 2.823,1.202 2.823,2.706 v 0.019 c 0,1.505 -1.212,2.726 -2.843,2.726 -1.621,0 -2.822,-1.202 -2.822,-2.706 z m 4.199,0 v -0.02 c 0,-0.771 -0.556,-1.445 -1.377,-1.445 -0.85,0 -1.357,0.655 -1.357,1.426 v 0.019 c 0,0.772 0.557,1.446 1.377,1.446 0.85,0 1.357,-0.655 1.357,-1.426 z"
   id="path28" />
		<path
   fill="#1b2437"
   d="m 149.646,12.335 h 1.388 l 3.203,4.209 v -4.209 h 1.484 v 6.837 h -1.279 l -3.311,-4.346 v 4.346 h -1.485 z"
   id="path29" />
		<path
   fill="#1b2437"
   d="m 156.945,16.584 v -0.02 c 0,-1.494 1.064,-2.725 2.589,-2.725 1.748,0 2.549,1.358 2.549,2.842 0,0.117 -0.01,0.254 -0.02,0.391 h -3.643 c 0.146,0.673 0.615,1.026 1.279,1.026 0.498,0 0.859,-0.156 1.27,-0.537 l 0.85,0.751 c -0.488,0.605 -1.191,0.977 -2.139,0.977 -1.572,10e-4 -2.735,-1.103 -2.735,-2.705 z m 3.693,-0.439 c -0.088,-0.665 -0.479,-1.114 -1.104,-1.114 -0.615,0 -1.017,0.439 -1.134,1.114 z"
   id="path30" />
		<path
   fill="#1b2437"
   d="m 163.212,20.208 0.508,-1.114 c 0.537,0.303 1.075,0.478 1.768,0.478 1.017,0 1.495,-0.488 1.495,-1.425 v -0.254 c -0.439,0.528 -0.919,0.85 -1.71,0.85 -1.22,0 -2.324,-0.889 -2.324,-2.441 v -0.02 c 0,-1.563 1.123,-2.442 2.324,-2.442 0.812,0 1.29,0.342 1.689,0.781 v -0.683 h 1.485 v 4.054 c 0,0.938 -0.225,1.621 -0.664,2.061 -0.488,0.487 -1.24,0.703 -2.257,0.703 -0.848,-0.001 -1.65,-0.197 -2.314,-0.548 z m 3.77,-3.907 v -0.02 c 0,-0.713 -0.557,-1.211 -1.28,-1.211 -0.723,0 -1.27,0.498 -1.27,1.211 v 0.02 c 0,0.722 0.547,1.21 1.27,1.21 0.724,0 1.28,-0.497 1.28,-1.21 z"
   id="path31" />
		<path
   fill="#1b2437"
   d="m 169.771,13.937 h 1.484 v 1.055 c 0.303,-0.722 0.791,-1.191 1.671,-1.153 v 1.553 h -0.078 c -0.987,0 -1.593,0.597 -1.593,1.847 v 1.934 h -1.484 z"
   id="path32" />
		<path
   fill="#1b2437"
   d="m 173.596,16.584 v -0.02 c 0,-1.503 1.212,-2.725 2.843,-2.725 1.621,0 2.822,1.202 2.822,2.706 v 0.019 c 0,1.505 -1.211,2.726 -2.842,2.726 -1.621,0 -2.823,-1.202 -2.823,-2.706 z m 4.2,0 v -0.02 c 0,-0.771 -0.557,-1.445 -1.377,-1.445 -0.85,0 -1.357,0.655 -1.357,1.426 v 0.019 c 0,0.772 0.557,1.446 1.377,1.446 0.849,0 1.357,-0.655 1.357,-1.426 z"
   id="path33" />
	</g>
	<rect
   x="99.292999"
   y="0.255"
   opacity="0.3"
   fill="#1b2437"
   width="0.97600001"
   height="20.496"
   id="rect33" />
</g>
</svg>
